<svg version="1.1" id="Layer_1" x="0px" y="0px" viewBox="0 0 54 54" style="enable-background:new 0 0 54 54;" xmlns="http://www.w3.org/2000/svg">
  <defs></defs>
  <style type="text/css">
	.st0{fill:#3366FF;}
</style>
  <title>logo</title>
  <g id="sisWSK.tif">
    <path class="st0" d="M33,39.7L33,39.7l-0.3,0.1c-0.5,0.2-1,0.5-1.6,0.7c-0.8,0.3-1.5,0.6-2.3,0.9c-0.6,0.2-1.1,0.4-1.7,0.6
		c-0.7,0.2-1.4,0.4-2.1,0.6c-0.5,0.1-1,0.3-1.6,0.4s-1.4,0.3-2,0.4s-1.4,0.2-2.1,0.3c-1.7,0.2-3.3,0.1-5-0.1
		c-0.6-0.1-1.2-0.2-1.7-0.3c-0.6-0.2-1.2-0.4-1.7-0.6c-0.7-0.3-1.3-0.7-1.8-1.2c-1.1-1-1.8-2.5-1.8-4c0-0.7,0.1-1.3,0.2-2
		c0.1-0.9,0.4-1.7,0.7-2.5c0.4-0.9,0.8-1.8,1.2-2.6c0.7-1.3,1.5-2.5,2.4-3.6c1.1-1.4,2.3-2.8,3.6-4c1.4-1.3,2.9-2.6,4.4-3.7
		c1-0.7,1.9-1.3,2.9-2s2-1.1,2.9-1.6c0.8-0.4,1.6-0.8,2.4-1.1s1.9-0.7,2.9-1.1c0.6-0.2,1.2-0.4,1.7-0.5s1-0.2,1.6-0.4
		s1.1-0.2,1.7-0.3c0.7-0.1,1.5-0.1,2.2-0.2c1.4-0.1,2.7,0,4.1,0.4c0.8,0.2,1.6,0.5,2.3,1c1.1,0.8,1.9,2,2.1,3.4
		c0.1,0.9,0.1,1.7-0.1,2.6c-0.2,0.8-0.4,1.6-0.8,2.4c-0.3,0.7-0.7,1.3-1,1.9c-0.6,1.1-1.4,2.1-2.3,3c-0.8,0.9-1.7,1.7-2.6,2.4
		c-1,0.8-2,1.5-3.1,2.1c-0.8,0.5-1.7,0.9-2.6,1.3c-0.8,0.4-1.6,0.7-2.4,1c-0.7,0.2-1.4,0.4-2.1,0.6c-0.8,0.2-1.7,0.3-2.5,0.4
		c-1,0.1-1.9,0.1-2.9-0.1c-0.7-0.1-1.4-0.3-2-0.6c-1-0.5-1.6-1.5-1.5-2.6c0-0.8,0.2-1.6,0.6-2.3c0.6-1,1.3-2,2.2-2.8
		c0.9-0.9,1.9-1.6,3-2.3c0.9-0.6,1.8-1,2.8-1.4c0.7-0.3,1.5-0.6,2.2-0.8c0.7-0.2,1.3-0.2,2-0.4h0.2c0,0-0.1-0.1-0.1-0.1h-0.3
		c-1.5,0-3.1,0.3-4.5,0.7c-0.8,0.2-1.6,0.5-2.3,0.8c-1.7,0.7-3.4,1.6-4.9,2.7c-1.4,0.9-2.6,2-3.7,3.3c-0.8,0.9-1.4,1.8-1.9,2.9
		c-0.3,0.6-0.5,1.2-0.6,1.8c-0.2,1.1,0,2.3,0.8,3.2c0.5,0.6,1.2,1,1.9,1.2c0.9,0.3,1.9,0.4,2.8,0.4c0.7,0,1.3-0.1,2-0.2
		c0.8-0.1,1.7-0.3,2.5-0.5s1.5-0.4,2.2-0.6s1.6-0.5,2.3-0.8c1.5-0.6,2.9-1.3,4.3-2c1.5-0.8,2.9-1.6,4.3-2.5c1.5-1,3-2.1,4.4-3.3
		c1.7-1.4,3.1-3,4.3-4.9c0.8-1.3,1.4-2.7,1.7-4.2c0.2-0.9,0.2-1.9,0-2.9c-0.1-0.8-0.5-1.5-0.9-2.1c-1.1-1.3-2.6-2.2-4.3-2.6
		C42.8,11.2,41.9,11,41,11c-1.4-0.1-2.8,0-4.2,0.1c-0.7,0.1-1.3,0.2-2,0.3c-0.7,0.1-1.3,0.2-2,0.4s-1,0.2-1.5,0.4
		c-0.7,0.2-1.4,0.4-2,0.6c-1,0.3-1.9,0.7-2.8,1.1c-1.4,0.6-2.7,1.2-4,1.9c-0.9,0.5-1.8,1-2.6,1.5c-1.5,0.9-3,2-4.3,3.1
		c-1.5,1.2-3,2.6-4.3,4.1c-1.5,1.6-2.8,3.4-3.9,5.3c-0.6,1.1-1.2,2.2-1.6,3.4c-0.4,1-0.6,2-0.7,3c-0.2,1.3,0,2.6,0.4,3.9
		c0.3,0.7,0.6,1.3,1.1,1.8c0.8,0.8,1.7,1.4,2.7,1.8c0.6,0.2,1.2,0.4,1.8,0.6c0.6,0.1,1.2,0.3,1.8,0.3c0.5,0.1,1,0.1,1.5,0.1
		s1.3,0,1.9,0c0.6,0,1.3-0.1,2-0.2s1.2-0.1,1.9-0.2c0.8-0.2,1.6-0.3,2.4-0.5c0.6-0.2,1.2-0.3,1.9-0.5c0.8-0.3,1.7-0.5,2.5-0.8
		s1.4-0.5,2.1-0.8s1.4-0.6,2.1-0.9S32.3,40,33,39.7z M33.7,25.4L33.7,25.4h0.1l0.7-0.2l2.8-0.9c0.1-0.1,0.2,0,0.3,0.1c0,0,0,0,0,0
		l0.4,0.6l0.7,1.1c0-0.1,0.1-0.1,0.1-0.2c0.4-0.8,0.8-1.6,1.3-2.4c0-0.1,0.1-0.1,0.2-0.1l1.4-0.5l2.2-0.7c0.1,0,0.2-0.1,0.3-0.1
		v-0.1h-0.2l-2.8-0.1c-0.3,0-0.3-0.1-0.2-0.4c0.3-0.6,0.7-1.3,1-2c0-0.1,0-0.1,0-0.2L42,19.3c-1,0.7-2,1.4-2.9,2.1
		c-0.1,0.1-0.3,0.1-0.4,0.1L36,21.4h-0.2c0,0.1,0,0.1,0.1,0.2c0.3,0.5,0.6,0.9,0.9,1.3c0.1,0.2,0.1,0.2-0.1,0.4L34.3,25L33.7,25.4z" style="fill: rgb(255, 255, 255);"></path>
    <path class="st0" d="M33,39.7c-0.7,0.3-1.3,0.7-2,1s-1.4,0.7-2.1,0.9s-1.4,0.6-2.1,0.8s-1.7,0.6-2.5,0.8c-0.6,0.2-1.2,0.3-1.9,0.5
		c-0.8,0.2-1.6,0.4-2.4,0.5c-0.6,0.1-1.2,0.2-1.9,0.2s-1.3,0.1-2,0.2s-1.3,0-1.9,0s-1-0.1-1.5-0.1c-0.6-0.1-1.2-0.2-1.8-0.3
		c-0.6-0.1-1.2-0.3-1.8-0.6c-1-0.4-2-1-2.7-1.8C6,41.3,5.7,40.7,5.4,40C5,38.8,4.8,37.4,5,36.1c0.1-1,0.3-2,0.7-3
		c0.4-1.2,0.9-2.3,1.6-3.4c1.1-1.9,2.4-3.7,3.9-5.3c1.3-1.5,2.8-2.8,4.3-4.1c1.4-1.1,2.8-2.2,4.3-3.1c0.9-0.5,1.8-1.1,2.6-1.5
		c1.3-0.7,2.6-1.4,4-1.9c0.9-0.4,1.9-0.7,2.8-1.1c0.7-0.2,1.3-0.4,2-0.6c0.5-0.1,1-0.3,1.5-0.4s1.3-0.3,2-0.4s1.3-0.2,2-0.3
		c1.4-0.2,2.8-0.2,4.2-0.2c0.9,0,1.8,0.2,2.7,0.4c1.7,0.3,3.2,1.3,4.3,2.6c0.5,0.6,0.8,1.3,1,2.1c0.2,0.9,0.2,1.9,0,2.9
		c-0.3,1.5-0.9,2.9-1.7,4.2c-1.2,1.8-2.7,3.5-4.4,4.9c-1.4,1.2-2.9,2.4-4.5,3.4c-1.4,0.9-2.8,1.7-4.3,2.5c-1.4,0.7-2.8,1.4-4.3,2
		c-0.8,0.3-1.5,0.6-2.3,0.8s-1.4,0.5-2.2,0.6s-1.7,0.3-2.5,0.5c-0.7,0.1-1.3,0.1-2,0.2c-0.9,0-1.9-0.1-2.8-0.4
		c-0.7-0.2-1.4-0.6-1.9-1.2c-0.7-0.9-1-2.1-0.8-3.2c0.1-0.6,0.3-1.2,0.6-1.8c0.5-1,1.1-2,1.9-2.9c1.1-1.2,2.3-2.3,3.7-3.3
		c1.5-1.1,3.2-2,4.9-2.7c0.8-0.3,1.5-0.6,2.3-0.8c1.5-0.5,3-0.7,4.5-0.7h0.3c0,0,0.1,0,0.1,0.1h-0.2c-0.7,0.1-1.3,0.2-2,0.4
		c-0.8,0.2-1.5,0.5-2.2,0.8c-1,0.4-1.9,0.9-2.8,1.4c-1.1,0.7-2.1,1.4-3,2.3c-0.9,0.8-1.6,1.7-2.2,2.8c-0.4,0.7-0.6,1.5-0.6,2.3
		c0,1.1,0.6,2.1,1.5,2.6c0.6,0.3,1.3,0.5,2,0.6c1,0.1,1.9,0.2,2.9,0.1c0.8-0.1,1.7-0.2,2.5-0.4c0.7-0.2,1.4-0.3,2.1-0.6
		c0.8-0.3,1.6-0.6,2.4-1c0.9-0.4,1.7-0.9,2.6-1.3c1.1-0.6,2.1-1.3,3.1-2.1c0.9-0.7,1.8-1.5,2.6-2.4c0.9-0.9,1.6-1.9,2.3-3
		c0.4-0.6,0.7-1.3,1-1.9c0.4-0.7,0.6-1.5,0.8-2.4c0.2-0.8,0.2-1.7,0.1-2.6c-0.2-1.4-1-2.6-2.1-3.4c-0.7-0.5-1.5-0.8-2.3-1
		c-1.3-0.3-2.7-0.5-4.1-0.4c-0.8,0.1-1.5,0.1-2.2,0.2c-0.6,0.1-1.1,0.2-1.7,0.3s-1,0.2-1.6,0.4s-1.2,0.3-1.7,0.5
		c-1,0.3-1.9,0.7-2.9,1.1s-1.6,0.7-2.4,1.1c-1,0.5-2,1-2.9,1.6s-2,1.3-2.9,2c-1.6,1.1-3,2.4-4.4,3.7c-1.3,1.2-2.5,2.6-3.6,4
		c-0.9,1.1-1.7,2.3-2.4,3.6c-0.4,0.8-0.8,1.7-1.2,2.6c-0.4,0.8-0.6,1.6-0.7,2.5c-0.1,0.7-0.2,1.3-0.2,2c0,1.5,0.6,3,1.8,4
		c0.5,0.5,1.2,0.9,1.8,1.2c0.6,0.3,1.1,0.5,1.7,0.6c0.6,0.2,1.1,0.3,1.7,0.3c1.7,0.2,3.3,0.3,5,0.1c0.7,0,1.4-0.2,2.1-0.3
		s1.4-0.2,2-0.4s1-0.2,1.6-0.4c0.7-0.2,1.4-0.4,2.1-0.6s1.1-0.4,1.7-0.6c0.8-0.3,1.5-0.6,2.3-0.9c0.5-0.2,1-0.5,1.6-0.7L33,39.7
		L33,39.7z" style="fill: rgb(255, 255, 255);"></path>
    <path class="st0" d="M33.7,25.4l0.6-0.5l2.4-1.7c0.1-0.1,0.2-0.2,0.1-0.4c-0.3-0.4-0.6-0.9-0.9-1.3c0-0.1,0-0.1-0.1-0.2H36l2.8,0.1
		c0.1,0,0.3,0,0.4-0.1c1-0.7,1.9-1.4,2.9-2.1l0.2-0.1c0,0.1,0,0.1,0,0.2c-0.3,0.7-0.7,1.3-1,2c-0.2,0.3-0.1,0.3,0.2,0.4l2.8,0.1h0.2
		V22c-0.1,0-0.2,0.1-0.3,0.1l-2.3,0.8l-1.4,0.5c-0.1,0-0.1,0.1-0.2,0.1c-0.4,0.8-0.8,1.6-1.3,2.4c0,0.1-0.1,0.1-0.1,0.2L38.1,25
		l-0.4-0.6c-0.1-0.1-0.2-0.2-0.3-0.1c0,0,0,0,0,0l-2.8,0.9l-0.7,0.2L33.7,25.4L33.7,25.4z" style="fill: rgb(255, 255, 255);"></path>
  </g>
</svg>